<svg xmlns="http://www.w3.org/2000/svg" width="30" height="30" viewBox="0 0 30 30">
    <path fill="#7F8C94" fill-rule="nonzero" d="M8.705.012h12.59c4.796 0 8.693 3.897 8.693 8.693v12.59a8.693 8.693 0 0 1-8.693 8.693H8.705c-4.796 0-8.693-3.897-8.693-8.693V8.705A8.693 8.693 0 0 1 8.705.012zm-.3 2.997A5.396 5.396 0 0 0 3.01 8.405v13.19a5.392 5.392 0 0 0 5.396 5.396h13.19a5.396 5.396 0 0 0 5.396-5.396V8.405a5.392 5.392 0 0 0-5.396-5.396H8.405zM22.87 5.258a1.874 1.874 0 1 1 0 3.747 1.874 1.874 0 0 1 0-3.747zM15 7.506a7.494 7.494 0 1 1 0 14.988 7.494 7.494 0 0 1 0-14.988zm0 2.998a4.496 4.496 0 1 0 0 8.992 4.496 4.496 0 0 0 0-8.992z"/>
</svg>
