<svg xmlns="http://www.w3.org/2000/svg" width="33" height="27" viewBox="0 0 33 27">
    <path fill="#7F8C94" fill-rule="nonzero" d="M33 3.244c-.556.308-2.224.926-3.775 1.08.996-.542 2.47-2.315 2.835-3.725-.958.62-3.16 1.518-4.245 1.518v.001A6.77 6.77 0 0 0 22.894 0c-3.76 0-6.808 3.07-6.808 6.855 0 .525.06 1.038.172 1.53C11.157 8.25 5.58 5.676 2.222 1.27c-2.065 3.598-.278 7.6 2.064 9.058-.801.06-2.278-.093-2.973-.776-.046 2.388 1.094 5.552 5.252 6.7-.8.435-2.218.31-2.835.218.217 2.015 3.02 4.652 6.086 4.652-1.093 1.272-5.204 3.58-9.817 2.846C3.133 25.889 6.785 27 10.65 27c10.983 0 19.513-8.964 19.054-20.022-.002-.012-.002-.024-.003-.037 0-.029.003-.057.003-.086 0-.035-.003-.068-.004-.101 1-.689 2.341-1.906 3.3-3.51z"/>
</svg>
